<svg width="96" height="104" viewBox="0 0 96 104" fill="none" xmlns="http://www.w3.org/2000/svg">
<g clip-path="url(#clip0_343_1207)">
<path d="M82.2002 100.032C82.2002 92.5549 82.1104 85.6358 82.2663 78.7261C82.3041 77.1228 82.8145 75.2689 83.7406 73.9872C100.18 51.1914 93.1251 20.6866 68.1234 7.85567C58.3986 2.86613 48.0076 1.8493 37.3614 4.81938C37.1346 4.88086 36.9172 4.98964 36.6857 5.0322C35.3342 5.28286 33.515 6.63548 32.929 4.40792C32.3667 2.27968 34.5829 2.19928 35.8918 1.86822C54.6656 -2.91323 71.1334 1.42366 83.8824 15.9903C96.6928 30.6326 99.3437 47.6254 91.8399 65.8053C90.4459 69.1868 88.2155 72.2184 86.4766 75.4675C85.9143 76.5174 85.3803 77.7471 85.3614 78.9011C85.2669 86.1513 85.3378 93.4062 85.3189 100.661C85.3094 104.133 83.9391 104.866 80.9101 103.031C76.1281 100.131 71.3508 97.2323 66.6207 94.2528C65.3827 93.4724 64.3336 93.2832 62.9066 93.8224C38.3207 103.078 5.93318 88.1282 0.30057 56.8478C0.14936 55.9965 -0.119985 55.0742 0.0595782 54.2797C0.253317 53.4284 0.924315 52.6859 1.38267 51.9008C2.06785 52.5865 3.13577 53.1588 3.36732 53.9723C4.33601 57.3633 4.70931 60.9482 5.91427 64.2351C13.2716 84.2595 32.8015 94.896 53.0684 92.9758C56.4565 92.6542 59.7217 91.1455 63.0956 90.4361C64.3384 90.176 65.9592 90.228 67.0176 90.8287C71.9981 93.671 76.8416 96.7499 82.2002 100.032Z" fill="white"/>
<path d="M5.13604 26.7164C4.82417 17.2954 11.1514 11.7289 19.794 8.66895C22.3316 7.77036 25.0439 9.18446 26.2489 11.7573C28.5218 16.6002 30.719 21.481 32.8265 26.3996C34.2252 29.6723 33.2991 32.0607 30.0811 34.2599C25.8 37.1826 25.8425 37.159 28.0776 41.8553C31.6452 49.3467 36.999 55.1119 44.2855 59.0988C45.7267 59.8886 46.6576 59.9548 47.872 58.5407C53.3156 52.208 53.9772 52.1749 61.2306 56.4267C64.217 58.1765 67.2743 59.8082 70.2796 61.5202C73.3132 63.2465 74.1213 65.4599 72.8076 68.6475C71.8767 70.9034 70.8655 73.1215 69.8023 75.3207C67.364 80.3528 62.7143 82.8641 57.0959 82.3675C44.6163 81.2656 34.2819 75.5761 25.3794 67.1435C15.6736 57.9495 8.91159 46.9347 6.09529 33.7207C5.60385 31.4222 5.44792 29.0528 5.13132 26.7164H5.13604ZM8.46268 26.8299C8.62335 28.3906 8.68005 29.975 8.96357 31.5168C10.7497 41.1601 14.9128 49.7298 20.9376 57.4009C30.2465 69.2529 41.9134 77.2077 57.1904 79.0995C60.6919 79.5346 64.6422 77.8557 66.1307 75.07C67.4255 72.6391 68.6966 70.1751 69.6606 67.6023C69.963 66.7983 69.5566 65.0862 68.9139 64.6795C64.8596 62.1209 60.6493 59.8082 56.4816 57.4293C54.8891 56.5212 53.4479 56.7814 52.243 58.1529C51.6192 58.8623 51.0569 59.6237 50.4899 60.3805C48.061 63.6485 46.6718 64.0505 43.1041 62.1445C34.9955 57.8124 28.9281 51.4844 25.0817 43.1133C22.7096 37.9441 21.6653 35.3003 28.2099 31.7154C30.237 30.604 30.6198 29.0102 29.6558 26.9387C27.5672 22.4458 25.5401 17.9197 23.4751 13.4173C22.7663 11.8755 21.3959 11.2276 19.9689 11.8897C13.0699 15.0962 7.92399 18.7521 8.46268 26.8347V26.8299Z" fill="white"/>
<path d="M51.7107 18.4497C63.6894 19.197 73.2204 27.8045 75.0492 38.8761C75.0728 39.0322 75.1059 39.1835 75.1342 39.3396C75.3516 40.5976 75.3279 41.8603 73.7969 42.1394C72.1998 42.4326 71.921 41.255 71.7414 39.9497C70.7963 33.1015 67.3516 27.7903 61.2559 24.598C58.4774 23.1413 55.1744 22.7204 52.1596 21.6704C51.3043 21.3725 50.638 20.5212 49.8867 19.9253C50.6428 19.3152 51.3988 18.7004 51.7107 18.4497Z" fill="white"/>
<path d="M51.6143 29.8047C57.6816 30.1925 62.9409 34.8273 63.5458 39.8594C63.6403 40.6351 62.681 41.5431 62.2085 42.3897C61.5233 41.7985 60.4034 41.3161 60.2239 40.5972C59.137 36.2651 56.6279 33.9713 52.153 33.2335C51.3072 33.0916 50.5984 32.1268 49.8281 31.5404C50.5606 30.831 51.2977 30.1216 51.6143 29.8141V29.8047Z" fill="white"/>
</g>
<defs>
<clipPath id="clip0_343_1207">
<rect width="96" height="104" fill="white"/>
</clipPath>
</defs>
</svg>
