<svg width="1456" height="1013" viewBox="0 0 1456 1013" fill="none" xmlns="http://www.w3.org/2000/svg">
<path d="M1008.05 686.349L989.094 652.67L950.494 654.285L950.379 651.722L990.568 650.043L1010.28 685.093L1008.05 686.349Z" fill="white"/>
<path d="M998.617 635.598L1020.04 673.685C1065.78 610.083 1090.48 534.01 1090.48 454.119C1090.48 365.372 1060.02 281.316 1004.05 213.855L967.783 224.544L958.812 272.704C996.425 323.466 1018.71 386.236 1018.71 454.119C1018.71 522.002 995.913 586.246 957.492 637.315L998.617 635.598Z" fill="#FDFDFD"/>
<path d="M981.059 667.113L929.836 669.253C874.499 724.936 797.901 759.461 713.383 759.461H0V831.228H713.37C814.099 831.228 908.793 792 980.021 720.784C986.787 714.018 993.272 707.033 999.449 699.844L981.046 667.126L981.059 667.113Z" fill="#FDFDFD"/>
<path d="M474.31 212.406L514.051 223.017C567.581 176.791 637.271 148.79 713.369 148.79C799.604 148.79 877.586 184.737 933.166 242.406L940.996 200.372L981.083 188.556C980.724 188.197 980.378 187.826 980.019 187.467C908.791 116.239 814.098 77.0234 713.369 77.0234C621.162 77.0234 534.017 109.908 465.301 170.115L474.31 212.406Z" fill="#FDFDFD"/>
<path d="M948.431 251.454L945.906 250.993L953.275 211.457L991.85 200.09L992.58 202.538L955.505 213.469L948.431 251.454Z" fill="white"/>
<path d="M713.744 225.551C776.029 225.551 826.52 175.06 826.52 112.776C826.52 50.4914 776.029 0 713.744 0C651.46 0 600.969 50.4914 600.969 112.776C600.969 175.06 651.46 225.551 713.744 225.551Z" fill="#414141"/>
<path d="M209.326 908.594C271.611 908.594 322.102 858.103 322.102 795.819C322.102 733.534 271.611 683.043 209.326 683.043C147.042 683.043 96.5508 733.534 96.5508 795.819C96.5508 858.103 147.042 908.594 209.326 908.594Z" fill="#414141"/>
<path d="M1049.92 549.251C1112.2 549.251 1162.7 498.759 1162.7 436.475C1162.7 374.191 1112.2 323.699 1049.92 323.699C987.636 323.699 937.145 374.191 937.145 436.475C937.145 498.759 987.636 549.251 1049.92 549.251Z" fill="#414141"/>
<path d="M1426.75 856.858H713.381C659.043 856.858 606.295 846.196 556.597 825.192C508.629 804.905 465.569 775.878 428.609 738.905C391.65 701.933 362.61 658.873 342.323 610.905C321.306 561.22 310.656 508.471 310.656 454.121H433.684C433.684 608.342 559.16 733.818 713.381 733.818H1426.75V856.846V856.858Z" fill="#414141"/>
<path d="M499.007 236.245L460.138 225.865L451.77 186.534L454.269 185.996L462.329 223.789L499.661 233.759L499.007 236.245Z" fill="white"/>
<path d="M488.345 247.984L448.156 237.257L439.211 195.223C372.763 265.49 336.277 357.004 336.277 454.12C336.277 530.359 358.768 603.137 400.572 664.908L443.53 661.383L459.203 623.117C426.895 574.687 408.044 516.569 408.044 454.12C408.044 374.741 438.506 302.334 488.345 247.984Z" fill="#FDFDFD"/>
<path d="M713.367 759.458C620.276 759.458 536.796 717.565 480.754 651.668L464.85 690.499L422.367 693.985C430.018 703.237 438.13 712.182 446.729 720.769C517.957 791.997 612.65 831.212 713.38 831.212H1426.75V759.446H713.38L713.367 759.458Z" fill="#FDFDFD"/>
<path d="M1416.33 718.451L1392.8 732.035L1432.04 799.991L1455.56 786.407L1416.33 718.451Z" fill="#414141"/>
<path d="M1392.78 858.701L1416.3 872.285L1455.54 804.329L1432.01 790.745L1392.78 858.701Z" fill="#414141"/>
<path d="M1391.44 864.72L1385.91 861.477L1424.74 795.337L1385.91 729.184L1391.44 725.941L1432.17 795.337L1391.44 864.72Z" fill="#FDFDFD"/>
<path d="M1201.74 908.352C1264.02 908.352 1314.52 857.861 1314.52 795.576C1314.52 733.292 1264.02 682.801 1201.74 682.801C1139.46 682.801 1088.96 733.292 1088.96 795.576C1088.96 857.861 1139.46 908.352 1201.74 908.352Z" fill="#414141"/>
<path d="M1201.74 695.613C1146.62 695.613 1101.78 740.454 1101.78 795.574C1101.78 850.693 1146.62 895.534 1201.74 895.534C1256.86 895.534 1301.7 850.693 1301.7 795.574C1301.7 740.454 1256.86 695.613 1201.74 695.613ZM1201.74 892.971C1147.96 892.971 1104.34 849.36 1104.34 795.574C1104.34 741.787 1147.96 698.176 1201.74 698.176C1255.53 698.176 1299.14 741.787 1299.14 795.574C1299.14 849.36 1255.53 892.971 1201.74 892.971Z" fill="#00529C"/>
<path d="M1201.74 878.87C1155.81 878.87 1118.44 841.5 1118.44 795.57C1118.44 749.639 1155.81 712.27 1201.74 712.27C1247.67 712.27 1285.04 749.639 1285.04 795.57C1285.04 841.5 1247.67 878.87 1201.74 878.87Z" fill="#00529C"/>
<path d="M1229.84 770.916L1229.54 773.838H1242.94V779.797C1242.94 784.052 1241.96 787.294 1240.39 789.857C1239.21 791.78 1237.67 793.33 1235.86 794.599C1233.25 796.444 1230.07 797.687 1226.76 798.546C1226.43 799.687 1225.98 800.789 1225.48 801.852C1228.88 801.122 1232.31 800.045 1235.4 798.341C1238.35 796.688 1241 794.445 1242.87 791.395C1244.76 788.332 1245.86 784.5 1245.86 779.797V770.916H1229.84Z" fill="#FDFDFD"/>
<path d="M1178.21 798.264C1176.03 797.636 1173.93 796.842 1172.04 795.778C1169.43 794.317 1167.21 792.408 1165.63 789.857C1164.06 787.294 1163.08 784.052 1163.08 779.797V773.838H1175.53L1175.23 770.916H1160.16V779.797C1160.16 784.5 1161.26 788.332 1163.15 791.395C1164.56 793.689 1166.4 795.522 1168.48 796.995C1171.59 799.187 1175.23 800.571 1178.9 801.481C1179.09 801.532 1179.27 801.558 1179.46 801.609C1178.98 800.532 1178.55 799.417 1178.23 798.277L1178.21 798.264Z" fill="#FDFDFD"/>
<path d="M1227.74 791.861L1230.79 761.668H1174.33L1177.33 791.861C1177.33 804.279 1186.95 814.506 1199.39 816.005C1199.39 816.069 1199.39 816.146 1199.39 816.21C1199.39 825.348 1191.99 832.768 1182.84 832.768H1182.81V835.69H1221.77V832.768C1212.63 832.755 1205.24 825.348 1205.24 816.21C1205.24 816.159 1205.24 816.121 1205.24 816.069C1217.89 814.762 1227.73 804.42 1227.73 791.861H1227.74Z" fill="#FDFDFD"/>
<path d="M1217.38 785.694C1217.38 794.037 1210.61 800.791 1202.28 800.791C1193.95 800.791 1187.19 794.037 1187.19 785.694C1187.19 777.351 1193.94 770.598 1202.28 770.598C1210.63 770.598 1217.38 777.351 1217.38 785.694Z" fill="#00529C"/>
<path d="M1202.53 775.211L1205.48 781.683L1212.54 782.477L1207.28 787.27L1208.72 794.242L1202.53 790.73L1196.35 794.242L1197.77 787.27L1192.52 782.477L1199.59 781.683L1202.53 775.211Z" fill="#FDFDFD"/>
<path d="M372.158 549.251C434.443 549.251 484.934 498.759 484.934 436.475C484.934 374.191 434.443 323.699 372.158 323.699C309.874 323.699 259.383 374.191 259.383 436.475C259.383 498.759 309.874 549.251 372.158 549.251Z" fill="#414141"/>
<path d="M415.003 680.443L414.785 677.893L453.308 674.728L467.956 638.973L470.327 639.934L455.077 677.15L415.003 680.443Z" fill="white"/>
<path d="M107.087 955.738H96.2591V925.193H107.177C110.249 925.193 112.894 925.804 115.111 927.027C117.329 928.24 119.034 929.985 120.227 932.262C121.43 934.539 122.032 937.264 122.032 940.436C122.032 943.618 121.43 946.352 120.227 948.639C119.034 950.926 117.319 952.681 115.082 953.904C112.854 955.127 110.189 955.738 107.087 955.738ZM102.717 950.205H106.819C108.728 950.205 110.334 949.867 111.636 949.191C112.949 948.505 113.933 947.446 114.589 946.014C115.256 944.572 115.589 942.713 115.589 940.436C115.589 938.179 115.256 936.334 114.589 934.902C113.933 933.471 112.954 932.417 111.651 931.74C110.349 931.064 108.743 930.726 106.834 930.726H102.717V950.205ZM125.016 955.738V932.829H131.37V955.738H125.016ZM128.208 929.876C127.264 929.876 126.453 929.563 125.777 928.936C125.111 928.3 124.778 927.539 124.778 926.654C124.778 925.779 125.111 925.029 125.777 924.402C126.453 923.766 127.264 923.448 128.208 923.448C129.153 923.448 129.958 923.766 130.624 924.402C131.3 925.029 131.639 925.779 131.639 926.654C131.639 927.539 131.3 928.3 130.624 928.936C129.958 929.563 129.153 929.876 128.208 929.876ZM153.841 939.362L148.024 939.72C147.925 939.223 147.711 938.775 147.383 938.377C147.055 937.97 146.622 937.647 146.085 937.408C145.558 937.159 144.927 937.035 144.191 937.035C143.207 937.035 142.376 937.244 141.7 937.662C141.024 938.069 140.686 938.616 140.686 939.302C140.686 939.849 140.905 940.311 141.342 940.689C141.78 941.067 142.53 941.37 143.594 941.599L147.741 942.434C149.968 942.892 151.628 943.627 152.722 944.642C153.816 945.656 154.363 946.988 154.363 948.639C154.363 950.14 153.92 951.458 153.035 952.591C152.16 953.725 150.957 954.61 149.426 955.246C147.905 955.873 146.15 956.186 144.161 956.186C141.128 956.186 138.712 955.554 136.913 954.292C135.123 953.019 134.074 951.289 133.766 949.101L140.015 948.773C140.204 949.698 140.661 950.404 141.387 950.891C142.113 951.368 143.043 951.607 144.176 951.607C145.29 951.607 146.185 951.393 146.861 950.966C147.547 950.528 147.895 949.966 147.905 949.28C147.895 948.703 147.651 948.231 147.174 947.863C146.697 947.485 145.961 947.197 144.967 946.998L140.999 946.208C138.762 945.76 137.097 944.985 136.003 943.881C134.919 942.777 134.377 941.37 134.377 939.66C134.377 938.189 134.775 936.921 135.57 935.857C136.376 934.793 137.504 933.973 138.956 933.396C140.418 932.819 142.128 932.531 144.087 932.531C146.98 932.531 149.257 933.142 150.918 934.365C152.588 935.588 153.562 937.254 153.841 939.362ZM167.035 956.186C164.688 956.186 162.67 955.689 160.979 954.694C159.299 953.69 158.006 952.298 157.101 950.518C156.206 948.738 155.759 946.69 155.759 944.373C155.759 942.027 156.211 939.968 157.116 938.199C158.031 936.419 159.329 935.032 161.009 934.037C162.689 933.033 164.688 932.531 167.005 932.531C169.003 932.531 170.753 932.894 172.255 933.62C173.756 934.346 174.944 935.365 175.819 936.677C176.694 937.99 177.177 939.531 177.266 941.301H171.27C171.101 940.157 170.654 939.238 169.928 938.542C169.212 937.836 168.273 937.483 167.109 937.483C166.125 937.483 165.265 937.751 164.529 938.288C163.803 938.815 163.236 939.586 162.829 940.6C162.421 941.614 162.217 942.842 162.217 944.284C162.217 945.745 162.416 946.988 162.814 948.012C163.221 949.037 163.793 949.817 164.529 950.354C165.265 950.891 166.125 951.159 167.109 951.159C167.835 951.159 168.486 951.01 169.063 950.712C169.65 950.414 170.132 949.981 170.51 949.414C170.898 948.838 171.151 948.147 171.27 947.341H177.266C177.167 949.091 176.689 950.632 175.834 951.965C174.989 953.287 173.821 954.321 172.329 955.067C170.838 955.813 169.073 956.186 167.035 956.186ZM190.005 956.186C187.688 956.186 185.685 955.694 183.994 954.709C182.314 953.715 181.016 952.333 180.102 950.563C179.187 948.783 178.729 946.72 178.729 944.373C178.729 942.007 179.187 939.939 180.102 938.169C181.016 936.389 182.314 935.007 183.994 934.022C185.685 933.028 187.688 932.531 190.005 932.531C192.322 932.531 194.32 933.028 196.001 934.022C197.691 935.007 198.994 936.389 199.908 938.169C200.823 939.939 201.281 942.007 201.281 944.373C201.281 946.72 200.823 948.783 199.908 950.563C198.994 952.333 197.691 953.715 196.001 954.709C194.32 955.694 192.322 956.186 190.005 956.186ZM190.035 951.264C191.089 951.264 191.969 950.966 192.675 950.369C193.381 949.762 193.913 948.937 194.271 947.893C194.639 946.849 194.822 945.661 194.822 944.328C194.822 942.996 194.639 941.808 194.271 940.764C193.913 939.72 193.381 938.895 192.675 938.288C191.969 937.681 191.089 937.378 190.035 937.378C188.971 937.378 188.076 937.681 187.35 938.288C186.634 938.895 186.092 939.72 185.724 940.764C185.366 941.808 185.188 942.996 185.188 944.328C185.188 945.661 185.366 946.849 185.724 947.893C186.092 948.937 186.634 949.762 187.35 950.369C188.076 950.966 188.971 951.264 190.035 951.264ZM224.352 932.829L216.342 955.738H209.183L201.174 932.829H207.886L212.644 949.221H212.882L217.625 932.829H224.352ZM235.625 956.186C233.269 956.186 231.24 955.708 229.54 954.754C227.85 953.789 226.547 952.427 225.632 950.667C224.717 948.897 224.26 946.804 224.26 944.388C224.26 942.032 224.717 939.963 225.632 938.184C226.547 936.404 227.835 935.017 229.495 934.022C231.166 933.028 233.124 932.531 235.372 932.531C236.883 932.531 238.29 932.775 239.592 933.262C240.905 933.739 242.048 934.46 243.023 935.424C244.007 936.389 244.773 937.602 245.32 939.064C245.867 940.515 246.14 942.216 246.14 944.164V945.909H226.796V941.972H240.159C240.159 941.057 239.96 940.247 239.563 939.541C239.165 938.835 238.613 938.283 237.907 937.885C237.211 937.478 236.401 937.274 235.476 937.274C234.511 937.274 233.656 937.498 232.911 937.945C232.175 938.382 231.598 938.974 231.181 939.72C230.763 940.456 230.549 941.276 230.539 942.181V945.924C230.539 947.058 230.748 948.037 231.166 948.863C231.593 949.688 232.195 950.324 232.97 950.772C233.746 951.219 234.666 951.443 235.73 951.443C236.435 951.443 237.082 951.343 237.668 951.145C238.255 950.946 238.757 950.647 239.175 950.25C239.592 949.852 239.911 949.365 240.129 948.788L246.006 949.176C245.708 950.588 245.096 951.821 244.171 952.875C243.257 953.919 242.073 954.734 240.622 955.321C239.18 955.897 237.514 956.186 235.625 956.186ZM248.606 955.738V932.829H254.766V936.826H255.005C255.422 935.404 256.123 934.331 257.108 933.605C258.092 932.869 259.226 932.501 260.508 932.501C260.827 932.501 261.17 932.521 261.537 932.561C261.905 932.6 262.229 932.655 262.507 932.725V938.363C262.209 938.273 261.796 938.194 261.269 938.124C260.742 938.054 260.26 938.02 259.822 938.02C258.888 938.02 258.052 938.223 257.317 938.631C256.591 939.029 256.014 939.586 255.586 940.301C255.169 941.017 254.96 941.843 254.96 942.777V955.738H248.606ZM268.732 964.329C267.926 964.329 267.171 964.265 266.465 964.135C265.769 964.016 265.192 963.862 264.735 963.673L266.166 958.93C266.912 959.159 267.583 959.283 268.18 959.303C268.786 959.323 269.308 959.184 269.746 958.885C270.193 958.587 270.556 958.08 270.835 957.364L271.208 956.395L262.99 932.829H269.671L274.414 949.653H274.653L279.441 932.829H286.167L277.263 958.214C276.835 959.447 276.254 960.521 275.518 961.436C274.792 962.36 273.872 963.071 272.759 963.569C271.645 964.076 270.303 964.329 268.732 964.329ZM305.146 956.186C303.038 956.186 301.218 955.808 299.687 955.052C298.156 954.297 296.977 953.272 296.152 951.98C295.337 950.677 294.929 949.225 294.929 947.625C294.929 946.431 295.168 945.373 295.645 944.448C296.122 943.523 296.788 942.673 297.644 941.897C298.499 941.112 299.493 940.331 300.627 939.556L306.548 935.663C307.313 935.176 307.875 934.664 308.233 934.127C308.591 933.58 308.77 932.988 308.77 932.352C308.77 931.745 308.526 931.184 308.039 930.667C307.552 930.15 306.861 929.896 305.966 929.906C305.369 929.906 304.852 930.04 304.415 930.309C303.977 930.567 303.634 930.91 303.386 931.338C303.147 931.755 303.028 932.223 303.028 932.74C303.028 933.376 303.207 934.022 303.565 934.679C303.923 935.335 304.4 936.031 304.997 936.767C305.593 937.493 306.244 938.278 306.95 939.123L321.433 955.738H314.81L302.73 942.285C301.934 941.38 301.139 940.436 300.343 939.451C299.558 938.457 298.901 937.403 298.374 936.289C297.847 935.166 297.584 933.948 297.584 932.635C297.584 931.154 297.927 929.821 298.613 928.638C299.309 927.455 300.283 926.52 301.536 925.834C302.789 925.138 304.251 924.79 305.921 924.79C307.552 924.79 308.959 925.123 310.142 925.789C311.335 926.446 312.25 927.321 312.886 928.414C313.533 929.498 313.856 930.691 313.856 931.994C313.856 933.436 313.498 934.743 312.782 935.917C312.076 937.08 311.082 938.124 309.799 939.049L303.565 943.538C302.72 944.154 302.093 944.786 301.685 945.432C301.288 946.069 301.089 946.68 301.089 947.267C301.089 947.993 301.268 948.644 301.626 949.221C301.984 949.797 302.491 950.255 303.147 950.593C303.803 950.921 304.574 951.085 305.459 951.085C306.533 951.085 307.592 950.841 308.636 950.354C309.69 949.857 310.644 949.156 311.499 948.251C312.364 947.336 313.056 946.252 313.573 945C314.09 943.747 314.348 942.36 314.348 940.838H319.613C319.613 942.708 319.409 944.393 319.002 945.895C318.594 947.386 318.027 948.689 317.301 949.802C316.575 950.906 315.745 951.811 314.81 952.517C314.512 952.706 314.224 952.885 313.945 953.054C313.667 953.223 313.379 953.402 313.08 953.591C311.947 954.505 310.679 955.167 309.277 955.574C307.885 955.982 306.508 956.186 305.146 956.186ZM162.007 1003.74H155.087L165.632 973.193H173.954L184.484 1003.74H177.563L169.912 980.173H169.673L162.007 1003.74ZM161.575 991.732H177.921V996.773H161.575V991.732ZM201.052 993.984V980.829H207.406V1003.74H201.306V999.577H201.067C200.55 1000.92 199.69 1002 198.487 1002.81C197.294 1003.63 195.837 1004.04 194.117 1004.04C192.585 1004.04 191.238 1003.69 190.075 1002.99C188.911 1002.3 188.002 1001.31 187.345 1000.02C186.699 998.742 186.371 997.206 186.361 995.416V980.829H192.715V994.282C192.725 995.635 193.088 996.703 193.803 997.489C194.519 998.275 195.479 998.667 196.682 998.667C197.448 998.667 198.164 998.493 198.83 998.145C199.496 997.787 200.033 997.26 200.441 996.564C200.858 995.868 201.062 995.008 201.052 993.984ZM219.25 1004.11C217.51 1004.11 215.934 1003.66 214.522 1002.77C213.12 1001.86 212.006 1000.54 211.181 998.787C210.366 997.027 209.958 994.869 209.958 992.314C209.958 989.689 210.38 987.506 211.226 985.766C212.071 984.016 213.194 982.708 214.596 981.843C216.008 980.968 217.554 980.531 219.235 980.531C220.517 980.531 221.586 980.75 222.441 981.187C223.307 981.615 224.003 982.152 224.53 982.798C225.066 983.434 225.474 984.061 225.753 984.677H225.946V973.193H232.285V1003.74H226.021V1000.07H225.753C225.454 1000.71 225.032 1001.34 224.485 1001.96C223.948 1002.58 223.247 1003.09 222.382 1003.5C221.527 1003.91 220.483 1004.11 219.25 1004.11ZM221.263 999.055C222.287 999.055 223.152 998.777 223.858 998.22C224.574 997.653 225.121 996.863 225.499 995.848C225.887 994.834 226.081 993.646 226.081 992.284C226.081 990.922 225.892 989.738 225.514 988.734C225.136 987.73 224.589 986.954 223.873 986.407C223.157 985.86 222.287 985.587 221.263 985.587C220.219 985.587 219.339 985.87 218.623 986.437C217.907 987.004 217.366 987.789 216.998 988.794C216.63 989.798 216.446 990.961 216.446 992.284C216.446 993.616 216.63 994.794 216.998 995.819C217.375 996.833 217.917 997.628 218.623 998.205C219.339 998.772 220.219 999.055 221.263 999.055ZM235.829 1003.74V980.829H242.183V1003.74H235.829ZM239.021 977.876C238.076 977.876 237.266 977.563 236.59 976.936C235.924 976.3 235.591 975.539 235.591 974.654C235.591 973.779 235.924 973.029 236.59 972.402C237.266 971.766 238.076 971.448 239.021 971.448C239.966 971.448 240.771 971.766 241.437 972.402C242.113 973.029 242.451 973.779 242.451 974.654C242.451 975.539 242.113 976.3 241.437 976.936C240.771 977.563 239.966 977.876 239.021 977.876ZM257.778 980.829V985.602H243.982V980.829H257.778ZM247.114 975.341H253.468V996.699C253.468 997.285 253.557 997.743 253.736 998.071C253.915 998.389 254.164 998.613 254.482 998.742C254.81 998.871 255.188 998.936 255.615 998.936C255.914 998.936 256.212 998.911 256.51 998.861C256.808 998.801 257.037 998.757 257.196 998.727L258.195 1003.45C257.877 1003.55 257.43 1003.67 256.853 1003.8C256.276 1003.94 255.575 1004.02 254.75 1004.05C253.219 1004.11 251.877 1003.91 250.723 1003.44C249.58 1002.97 248.69 1002.25 248.053 1001.26C247.417 1000.28 247.104 999.035 247.114 997.534V975.341Z" fill="white"/>
<path d="M209.327 695.855C154.208 695.855 109.367 740.697 109.367 795.816C109.367 850.935 154.208 895.776 209.327 895.776C264.447 895.776 309.288 850.935 309.288 795.816C309.288 740.697 264.447 695.855 209.327 695.855ZM209.327 893.213C155.541 893.213 111.93 849.602 111.93 795.816C111.93 742.029 155.541 698.419 209.327 698.419C263.114 698.419 306.725 742.029 306.725 795.816C306.725 849.602 263.114 893.213 209.327 893.213Z" fill="#00529C"/>
<path d="M209.328 879.12C163.397 879.12 126.027 841.75 126.027 795.82C126.027 749.889 163.397 712.52 209.328 712.52C255.258 712.52 292.628 749.889 292.628 795.82C292.628 841.75 255.258 879.12 209.328 879.12Z" fill="#00529C"/>
<path d="M214.819 780.275V810.82H208.361V786.405H208.182L201.187 790.79V785.062L208.748 780.275H214.819Z" fill="white"/>
<path d="M1049.92 336.512C994.798 336.512 949.957 381.353 949.957 436.472C949.957 491.591 994.798 536.432 1049.92 536.432C1105.04 536.432 1149.88 491.591 1149.88 436.472C1149.88 381.353 1105.04 336.512 1049.92 336.512ZM1049.92 533.869C996.131 533.869 952.52 490.258 952.52 436.472C952.52 382.686 996.131 339.075 1049.92 339.075C1103.7 339.075 1147.31 382.686 1147.31 436.472C1147.31 490.258 1103.7 533.869 1049.92 533.869Z" fill="#00529C"/>
<path d="M1049.92 519.776C1003.99 519.776 966.617 482.406 966.617 436.476C966.617 390.546 1003.99 353.176 1049.92 353.176C1095.85 353.176 1133.22 390.546 1133.22 436.476C1133.22 482.406 1095.85 519.776 1049.92 519.776Z" fill="#00529C"/>
<path d="M1039.16 451.477V446.823L1050.04 436.756C1050.96 435.861 1051.74 435.055 1052.36 434.339C1053 433.624 1053.48 432.923 1053.81 432.237C1054.14 431.54 1054.3 430.79 1054.3 429.984C1054.3 429.089 1054.1 428.319 1053.69 427.673C1053.28 427.016 1052.72 426.514 1052.02 426.166C1051.31 425.808 1050.51 425.629 1049.62 425.629C1048.68 425.629 1047.87 425.818 1047.17 426.196C1046.48 426.574 1045.94 427.116 1045.56 427.822C1045.18 428.528 1044.99 429.368 1044.99 430.342H1038.86C1038.86 428.344 1039.32 426.609 1040.22 425.137C1041.13 423.665 1042.39 422.527 1044.02 421.722C1045.66 420.916 1047.53 420.513 1049.66 420.513C1051.85 420.513 1053.75 420.901 1055.37 421.677C1057.01 422.442 1058.27 423.506 1059.18 424.869C1060.08 426.231 1060.54 427.792 1060.54 429.552C1060.54 430.705 1060.31 431.844 1059.85 432.967C1059.4 434.091 1058.6 435.339 1057.45 436.711C1056.29 438.073 1054.67 439.709 1052.57 441.618L1048.11 445.988V446.197H1060.94V451.477H1039.16Z" fill="white"/>
<path d="M713.745 12.8164C658.626 12.8164 613.785 57.6576 613.785 112.777C613.785 167.896 658.626 212.737 713.745 212.737C768.865 212.737 813.706 167.896 813.706 112.777C813.706 57.6576 768.865 12.8164 713.745 12.8164ZM713.745 210.174C659.959 210.174 616.348 166.563 616.348 112.777C616.348 58.9904 659.959 15.3795 713.745 15.3795C767.532 15.3795 811.143 58.9904 811.143 112.777C811.143 166.563 767.532 210.174 713.745 210.174Z" fill="#00529C"/>
<path d="M713.742 196.073C667.811 196.073 630.441 158.703 630.441 112.773C630.441 66.8424 667.811 29.4727 713.742 29.4727C759.672 29.4727 797.042 66.8424 797.042 112.773C797.042 158.703 759.672 196.073 713.742 196.073Z" fill="#00529C"/>
<path d="M713.666 128.191C711.438 128.191 709.455 127.808 707.715 127.043C705.985 126.267 704.617 125.203 703.613 123.851C702.619 122.489 702.107 120.918 702.077 119.138H708.58C708.62 119.884 708.863 120.54 709.311 121.107C709.768 121.663 710.375 122.096 711.13 122.404C711.886 122.712 712.736 122.866 713.681 122.866C714.665 122.866 715.535 122.692 716.291 122.344C717.046 121.996 717.638 121.514 718.066 120.898C718.493 120.281 718.707 119.57 718.707 118.765C718.707 117.95 718.478 117.229 718.021 116.602C717.573 115.966 716.927 115.469 716.082 115.111C715.247 114.753 714.252 114.574 713.099 114.574H710.25V109.831H713.099C714.073 109.831 714.934 109.662 715.679 109.324C716.435 108.986 717.022 108.518 717.439 107.922C717.857 107.315 718.066 106.609 718.066 105.804C718.066 105.038 717.882 104.367 717.514 103.79C717.156 103.204 716.649 102.746 715.992 102.418C715.346 102.09 714.59 101.926 713.725 101.926C712.85 101.926 712.05 102.085 711.324 102.403C710.598 102.712 710.017 103.154 709.579 103.731C709.142 104.308 708.908 104.984 708.878 105.759H702.688C702.718 103.999 703.22 102.448 704.195 101.106C705.169 99.7635 706.482 98.7145 708.132 97.9588C709.793 97.1932 711.667 96.8104 713.755 96.8104C715.863 96.8104 717.708 97.1932 719.289 97.9588C720.87 98.7244 722.098 99.7585 722.973 101.061C723.858 102.354 724.295 103.805 724.285 105.416C724.295 107.126 723.763 108.553 722.689 109.697C721.625 110.84 720.238 111.566 718.528 111.874V112.113C720.775 112.401 722.485 113.182 723.659 114.455C724.842 115.717 725.429 117.298 725.419 119.197C725.429 120.938 724.926 122.484 723.912 123.836C722.908 125.188 721.521 126.252 719.751 127.028C717.981 127.803 715.953 128.191 713.666 128.191Z" fill="white"/>
<path d="M372.159 336.512C317.04 336.512 272.199 381.353 272.199 436.472C272.199 491.591 317.04 536.432 372.159 536.432C427.279 536.432 472.12 491.591 472.12 436.472C472.12 381.353 427.279 336.512 372.159 336.512ZM372.159 533.869C318.373 533.869 274.762 490.258 274.762 436.472C274.762 382.686 318.373 339.075 372.159 339.075C425.946 339.075 469.557 382.686 469.557 436.472C469.557 490.258 425.946 533.869 372.159 533.869Z" fill="#00529C"/>
<path d="M372.16 519.776C326.229 519.776 288.859 482.406 288.859 436.476C288.859 390.546 326.229 353.176 372.16 353.176C418.09 353.176 455.46 390.546 455.46 436.476C455.46 482.406 418.09 519.776 372.16 519.776Z" fill="#00529C"/>
<path d="M360.441 446.107V441.021L373.193 420.931H377.578V427.971H374.983L366.944 440.693V440.932H385.066V446.107H360.441ZM375.102 451.477V444.556L375.222 442.304V420.931H381.277V451.477H375.102Z" fill="white"/>
</svg>
