<svg width="15" height="15" viewBox="0 0 15 15" fill="none" xmlns="http://www.w3.org/2000/svg">
<path fill-rule="evenodd" clip-rule="evenodd" d="M7.5 0C5.463 0 5.208 0.0085 4.408 0.045C3.6095 0.0815 3.064 0.2085 2.587 0.394C2.087 0.582 1.6335 0.877 1.2585 1.259C0.877111 1.63357 0.581929 2.08675 0.3935 2.587C0.209 3.064 0.0815 3.61 0.045 4.4085C0.009 5.208 0 5.4625 0 7.5C0 9.5375 0.0085 9.792 0.045 10.592C0.0815 11.3905 0.2085 11.936 0.394 12.413C0.582 12.913 0.877 13.3665 1.259 13.7415C1.63358 14.1229 2.08675 14.4181 2.587 14.6065C3.064 14.7915 3.6095 14.9185 4.408 14.955C5.208 14.9915 5.463 15 7.5 15C9.537 15 9.792 14.9915 10.592 14.955C11.3905 14.9185 11.936 14.7915 12.413 14.606C12.913 14.418 13.3665 14.123 13.7415 13.741C14.1229 13.3664 14.4181 12.9133 14.6065 12.413C14.7915 11.936 14.9185 11.3905 14.955 10.592C14.9915 9.792 15 9.537 15 7.5C15 5.463 14.9915 5.208 14.955 4.408C14.9185 3.6095 14.7915 3.064 14.606 2.587C14.4177 2.08653 14.1225 1.63316 13.741 1.2585C13.3664 0.877111 12.9133 0.581929 12.413 0.3935C11.936 0.209 11.39 0.0815 10.5915 0.045C9.792 0.009 9.5375 0 7.5 0ZM7.5 1.3515C9.5025 1.3515 9.74 1.359 10.531 1.395C11.262 1.4285 11.659 1.55 11.9235 1.6535C12.2735 1.789 12.5235 1.952 12.786 2.214C13.0485 2.4765 13.211 2.7265 13.3465 3.0765C13.4495 3.341 13.5715 3.738 13.605 4.469C13.641 5.26 13.6485 5.4975 13.6485 7.5C13.6485 9.5025 13.641 9.74 13.605 10.531C13.5715 11.262 13.45 11.659 13.3465 11.9235C13.2265 12.2493 13.0349 12.544 12.786 12.786C12.544 13.035 12.2493 13.2265 11.9235 13.3465C11.659 13.4495 11.262 13.5715 10.531 13.605C9.74 13.641 9.503 13.6485 7.5 13.6485C5.497 13.6485 5.26 13.641 4.469 13.605C3.738 13.5715 3.341 13.45 3.0765 13.3465C2.75073 13.2265 2.456 13.0349 2.214 12.786C1.96509 12.544 1.77356 12.2493 1.6535 11.9235C1.5505 11.659 1.4285 11.262 1.395 10.531C1.359 9.74 1.3515 9.5025 1.3515 7.5C1.3515 5.4975 1.359 5.26 1.395 4.469C1.4285 3.738 1.55 3.341 1.6535 3.0765C1.789 2.7265 1.952 2.4765 2.214 2.214C2.45597 1.96502 2.7507 1.77349 3.0765 1.6535C3.341 1.5505 3.738 1.4285 4.469 1.395C5.26 1.359 5.4975 1.3515 7.5 1.3515V1.3515Z" fill="white"/>
</svg>
