<svg width="217" height="36" viewBox="0 0 217 36" fill="none" xmlns="http://www.w3.org/2000/svg">
<g clip-path="url(#clip0_1_382)">
<path d="M19.1098 12.1523V36H30.9527V29.3678C30.9527 26.6464 29.9436 24.0294 28.1315 22.0432L19.1072 12.1523H19.1098Z" fill="white"/>
<path d="M2.31278 0H0V12.1444H19.1046L9.45972 2.8924C7.52241 1.03453 4.96714 0 2.31278 0Z" fill="white"/>
<path d="M16.1504 0C17.514 0.0080196 18.823 0.54266 19.819 1.49699L29.5004 11.4226C30.4025 12.4117 30.9162 13.7055 30.9553 15.0581V0H16.1504Z" fill="white"/>
<path d="M95.1813 20.9659C95.1813 21.5567 95.1291 22.2517 95.077 22.6821H75.6778C76.254 27.6142 79.4951 30.4023 84.2536 30.4023C87.0774 30.4023 90.8947 29.4908 93.5621 28.2584V33.6209C91.3666 34.8532 87.2365 35.9252 83.4688 35.9252C74.421 35.9252 69.2974 29.6538 69.2974 21.3963C69.2974 12.5507 75.1015 7.29517 82.7882 7.29517C90.4749 7.29517 95.2334 13.0319 95.1813 20.9659ZM75.9907 18.2847H88.8531C88.3811 14.8523 86.2378 12.7619 82.7882 12.7619C79.3386 12.7619 76.8277 14.8523 75.9907 18.2847Z" fill="white"/>
<path d="M99.786 33.8882V28.2611C102.245 29.7608 105.958 30.5654 108.623 30.5654C110.977 30.5654 113.381 29.5469 113.381 27.6169C113.381 26.1172 112.231 25.3126 110.609 24.8849L105.903 23.5964C101.144 22.3106 99.3662 19.1482 99.3662 15.395C99.3662 10.356 104.125 7.30054 110.19 7.30054C113.274 7.30054 116.466 8.05171 118.085 9.0702V14.593C115.837 13.3045 112.596 12.7699 110.137 12.7699C107.942 12.7699 106.005 13.5745 106.005 15.5581C106.005 16.9508 107.102 17.7554 108.829 18.2366L113.167 19.5251C118.606 21.0248 120.017 24.1872 120.017 27.7265C120.017 33.3001 114.998 35.9278 108.722 35.9278C105.374 35.9278 101.452 34.9628 99.7782 33.8882H99.786Z" fill="white"/>
<path d="M140.772 29.3839V35.174C139.255 35.6552 137.111 35.9252 135.229 35.9252C126.914 35.9252 124.301 29.7046 124.301 23.3798V4.07934L130.366 0.112305H131.044V9.36425L132.452 7.93944H139.985V13.5157H131.041V23.4333C131.041 27.24 132.819 29.9746 136.585 29.9746C137.998 29.9746 139.461 29.7608 140.767 29.3839H140.772Z" fill="white"/>
<path d="M153.723 7.93939H146.978V35.2809H153.723V7.93939Z" fill="white"/>
<path d="M179.766 7.93939H187.033V8.42324L173.803 35.2836H171.344L158.062 8.42324V7.93939H165.279L172.601 24.131L179.766 7.93939Z" fill="white"/>
<path d="M210.202 7.93941H217V35.2809H210.202V32.5462C208.163 34.5859 204.972 35.9252 201.574 35.9252C194.464 35.9252 188.501 30.4023 188.501 21.6102C188.501 12.818 194.461 7.29517 201.574 7.29517C204.975 7.29517 208.163 8.63444 210.202 10.6714V7.93673V7.93941ZM210.202 27.0795V16.1408C208.268 14.2642 205.548 13.0853 203.037 13.0853C198.855 13.0853 195.244 16.3039 195.194 21.6102C195.246 26.9165 198.855 30.135 203.037 30.135C205.548 30.135 208.265 28.9561 210.202 27.0795Z" fill="white"/>
<path d="M65.7696 29.3839V35.174C64.2521 35.6552 62.1088 35.9252 60.2262 35.9252C51.9112 35.9252 49.2985 29.7046 49.2985 23.3798V4.07934L55.3634 0.112305H56.0413V9.36425L57.4493 7.93944H64.9822V13.5157H56.0387V23.4333C56.0387 27.24 57.817 29.9746 61.5821 29.9746C62.9953 29.9746 64.4581 29.7608 65.7644 29.3839H65.7696Z" fill="white"/>
<path d="M148.6 0.689686C148.141 0.251281 147.538 0.0053464 146.91 0H153.736V6.9423C153.718 6.31945 153.481 5.72332 153.066 5.26621L148.602 0.689686H148.6Z" fill="white"/>
</g>
<defs>
<clipPath id="clip0_1_382">
<rect width="217" height="36" fill="white"/>
</clipPath>
</defs>
</svg>
