<svg width="33" height="22" viewBox="0 0 33 22" fill="none" xmlns="http://www.w3.org/2000/svg">
<path d="M1.83334 22C1.3139 22 0.878784 21.824 0.528007 21.472C0.177229 21.12 0.00122854 20.6849 6.32183e-06 20.1667C-0.0012159 19.6484 0.174784 19.2133 0.528007 18.8613C0.881229 18.5093 1.31634 18.3333 1.83334 18.3333H31.1667C31.6861 18.3333 32.1218 18.5093 32.4738 18.8613C32.8258 19.2133 33.0012 19.6484 33 20.1667C32.9988 20.6849 32.8228 21.1206 32.472 21.4738C32.1212 21.8271 31.6861 22.0024 31.1667 22H1.83334ZM1.83334 12.8333C1.3139 12.8333 0.878784 12.6573 0.528007 12.3053C0.177229 11.9533 0.00122854 11.5182 6.32183e-06 11C-0.0012159 10.4818 0.174784 10.0467 0.528007 9.69467C0.881229 9.34267 1.31634 9.16667 1.83334 9.16667H31.1667C31.6861 9.16667 32.1218 9.34267 32.4738 9.69467C32.8258 10.0467 33.0012 10.4818 33 11C32.9988 11.5182 32.8228 11.9539 32.472 12.3072C32.1212 12.6604 31.6861 12.8358 31.1667 12.8333H1.83334ZM1.83334 3.66667C1.3139 3.66667 0.878784 3.49067 0.528007 3.13867C0.177229 2.78667 0.00122854 2.35156 6.32183e-06 1.83333C-0.0012159 1.31511 0.174784 0.88 0.528007 0.528C0.881229 0.176 1.31634 0 1.83334 0H31.1667C31.6861 0 32.1218 0.176 32.4738 0.528C32.8258 0.88 33.0012 1.31511 33 1.83333C32.9988 2.35156 32.8228 2.78728 32.472 3.1405C32.1212 3.49372 31.6861 3.66911 31.1667 3.66667H1.83334Z" fill="black"/>
</svg>
