<svg width="125" height="132" viewBox="0 0 125 132" fill="none" xmlns="http://www.w3.org/2000/svg">
<g clip-path="url(#clip0_343_1215)">
<path d="M103.9 112.835C89.4527 121.528 76.387 120.188 68.2002 109.621C60.3028 99.435 61.1998 85.4697 70.3169 76.5762C79.619 67.5021 93.0692 66.7558 102.841 74.6369C111.65 81.7383 117.155 96.3643 106.045 110.729C107.222 112.122 108.128 113.776 110.477 113.624C111.151 113.581 111.982 114.417 112.585 115.007C116.306 118.667 119.993 122.36 123.667 126.068C125.351 127.77 125.418 129.324 123.951 130.821C122.399 132.409 120.729 132.423 119.011 130.693C115.105 126.771 111.251 122.798 107.388 118.829C107.008 118.439 106.676 117.982 106.415 117.507C105.58 116.01 104.782 114.484 103.9 112.83V112.835ZM87.4879 72.4979C75.7937 72.5501 66.0123 82.6557 66.0834 94.6199C66.1499 106.085 75.9124 115.682 87.4499 115.62C99.0017 115.563 109.229 105.443 109.134 94.173C109.035 82.3705 99.1251 72.4503 87.4879 72.4979Z" fill="white"/>
<path d="M0 67.5732C0 52.5241 0 37.4751 0 22.4213C0 16.1564 3.22728 12.9336 9.51097 12.9194C11.9599 12.9146 14.4231 12.7863 16.8625 12.9527C17.5792 13.0002 18.2389 13.8701 18.9223 14.3644C18.2578 14.9063 17.6266 15.8665 16.929 15.9187C14.4136 16.1089 11.8745 15.9805 9.34486 15.99C5.35823 15.9995 3.29372 17.9199 3.27948 21.9079C3.22728 38.2261 3.24151 54.5443 3.23202 70.8577C3.22253 84.6424 3.23202 98.4223 3.20829 112.207C3.1988 117.417 4.71752 118.947 9.97133 118.942C28.7133 118.928 47.4552 118.923 66.1924 118.914C66.7477 118.914 67.4121 118.743 67.825 118.985C68.4277 119.337 69.2441 120.002 69.2393 120.525C69.2346 121.053 68.404 121.699 67.7965 122.046C67.3741 122.289 66.7144 122.127 66.1639 122.127C47.1087 122.127 28.0488 122.127 8.99366 122.113C3.16083 122.113 0.014238 118.99 0.00949199 113.191C-0.00474599 97.9802 0.00949199 82.7743 0 67.5637L0 67.5732Z" fill="white"/>
<path d="M33.1119 8.45166C34.8157 2.47197 37.407 0.0287541 41.8635 0.000234071C46.3058 -0.0282859 49.0347 2.54802 50.7338 8.49919C52.7983 8.49919 54.9245 8.46116 57.046 8.5087C60.1593 8.58 61.4502 9.92043 61.4692 13.0719C61.4835 15.6862 61.5072 18.3006 61.4502 20.9101C61.3838 23.7907 60.0407 25.1881 57.2405 25.1976C46.9655 25.2404 36.6856 25.2547 26.4106 25.2309C23.6626 25.2262 22.3622 23.9095 22.2768 21.1621C22.1914 18.3909 22.1629 15.6197 22.2104 12.8485C22.2578 9.90618 23.6199 8.59426 26.6289 8.46116C27.7347 8.41363 28.8405 8.45166 29.9463 8.4469C30.9667 8.4469 31.9871 8.4469 33.1119 8.4469V8.45166ZM41.7923 22.1555C46.6095 22.1555 51.4267 22.1175 56.2439 22.1793C57.7009 22.1983 58.4603 21.8275 58.3843 20.1924C58.2847 18.0629 58.2847 15.9191 58.3938 13.7849C58.4793 12.0642 57.7246 11.5889 56.1395 11.6554C53.9326 11.7457 51.7162 11.6554 49.5046 11.6792C47.8482 11.6982 47.1268 11.066 47.1458 9.26447C47.1885 5.54262 45.1098 3.26577 41.949 3.24676C38.7217 3.22775 36.605 5.43804 36.6097 9.11712C36.6097 11.0089 35.8171 11.6792 34.0611 11.6459C31.8495 11.6031 29.6378 11.6744 27.4262 11.6126C25.9977 11.5698 25.4566 12.1497 25.4898 13.5757C25.5421 15.71 25.5231 17.8537 25.3949 19.9832C25.2953 21.6421 25.9217 22.2078 27.5686 22.1793C32.3051 22.0985 37.0463 22.1508 41.7828 22.1603L41.7923 22.1555Z" fill="white"/>
<path d="M82.959 41.2115C82.959 47.8662 82.9448 54.5208 82.9685 61.1707C82.9685 62.5112 82.9733 64.0275 81.2505 63.8421C80.681 63.7803 79.8789 62.0881 79.8694 61.1375C79.784 48.2274 79.8219 35.3174 79.8267 22.4026C79.8267 17.8204 78.1371 16.0901 73.5667 16.0379C71.2744 16.0093 68.9726 16.1519 66.6945 15.9666C65.9826 15.9095 65.3419 15.0302 64.668 14.5263C65.3419 13.9939 65.9921 13.0338 66.6945 12.9957C69.6892 12.8389 72.7172 12.7486 75.6977 13.01C80.1352 13.3998 82.9448 16.7746 82.9733 21.4852C83.016 28.059 82.9828 34.6329 82.9828 41.2067C82.9733 41.2067 82.9685 41.2067 82.959 41.2067V41.2115Z" fill="white"/>
<path d="M54.2514 43.4171C57.8821 43.4171 61.5222 43.3125 65.1482 43.4884C66.0926 43.5312 67.7063 44.344 67.787 44.9667C67.991 46.5305 66.5245 46.6161 65.2811 46.6161C57.697 46.6113 50.1176 46.6589 42.5383 46.5448C41.6935 46.5305 40.227 45.6892 40.151 45.095C39.9517 43.4599 41.4277 43.4361 42.6427 43.4314C46.5107 43.4218 50.3834 43.4314 54.2514 43.4314V43.4218V43.4171Z" fill="white"/>
<path d="M21.286 50.2523C24.5465 46.6778 27.4036 43.5406 30.2654 40.4082C30.6404 39.9994 30.9441 39.3814 31.4045 39.2341C32.1164 39.0059 32.9327 39.0915 33.7063 39.0439C33.7158 39.814 34.0575 40.874 33.6825 41.3065C30.2132 45.2993 26.6205 49.1876 23.0515 53.0948C22.0738 54.169 21.0345 54.2261 19.9809 53.1851C18.2438 51.4596 16.4071 49.815 14.8267 47.9612C14.3284 47.3765 14.504 46.2167 14.3711 45.3183C15.2633 45.3849 16.4546 45.114 16.9956 45.5893C18.5191 46.925 19.7768 48.5649 21.286 50.2523Z" fill="white"/>
<path d="M21.5581 74.6414C24.6524 71.1572 27.5855 67.7348 30.6799 64.4646C31.2731 63.8371 32.8393 63.2477 33.3471 63.5804C34.7424 64.4836 33.798 65.6529 32.9959 66.556C29.6879 70.2826 26.3325 73.9665 23.0341 77.7026C21.9662 78.9147 20.9648 78.9955 19.8353 77.8404C18.122 76.0817 16.2995 74.4228 14.7381 72.5452C14.2682 71.9796 14.5245 70.815 14.4486 69.9261C15.3455 70.0592 16.4751 69.8976 17.1016 70.3872C18.6488 71.5898 19.9634 73.0823 21.5628 74.6462L21.5581 74.6414Z" fill="white"/>
<path d="M21.4818 99.0403C24.4575 95.7224 27.3431 92.5044 30.2287 89.2817C30.5466 88.9299 30.7887 88.3786 31.1731 88.2502C31.8898 88.0125 32.6918 88.0173 33.4559 87.9175C33.4987 88.697 33.9021 89.7855 33.5366 90.2133C29.9961 94.3535 26.3607 98.4223 22.6256 102.391C22.2459 102.795 20.7367 102.757 20.2573 102.339C18.2355 100.58 16.3276 98.6695 14.5621 96.6493C14.1303 96.155 14.4103 95.0475 14.3581 94.2204C15.1886 94.2869 16.2707 94.0493 16.7975 94.4818C18.4254 95.8175 19.8397 97.4099 21.4771 99.0403H21.4818Z" fill="white"/>
<path d="M54.0716 68.3623C57.707 68.3623 61.3472 68.272 64.9779 68.4288C65.8559 68.4669 67.3794 69.2464 67.4363 69.7978C67.5977 71.4329 66.1075 71.4092 64.902 71.4139C57.3938 71.452 49.8857 71.528 42.3775 71.4425C41.5659 71.4329 40.7639 70.4585 39.957 69.9309C40.7876 69.4223 41.6039 68.5144 42.4582 68.4811C46.3262 68.3243 50.2036 68.4098 54.0764 68.4098V68.3623H54.0716Z" fill="white"/>
<path d="M47.578 92.609C49.5476 92.609 51.5314 92.4901 53.482 92.6802C54.099 92.742 54.64 93.6262 55.2143 94.13C54.6495 94.6529 54.1037 95.6083 53.5199 95.6273C49.5855 95.7652 45.6416 95.7652 41.7024 95.6416C41.1139 95.6226 40.5586 94.7052 39.9844 94.2061C40.5444 93.6689 41.0665 92.723 41.6739 92.6612C43.6246 92.4616 45.6036 92.5852 47.578 92.5852C47.578 92.5947 47.578 92.5994 47.578 92.609Z" fill="white"/>
<path d="M84.4687 98.8931C87.8146 95.3186 91.2459 91.6395 94.6868 87.9699C95.1187 87.5088 95.5031 86.8767 96.0441 86.6818C96.6659 86.4536 97.6957 86.3443 98.0517 86.6913C98.4219 87.0525 98.4788 88.1981 98.1751 88.6924C97.5676 89.6811 96.6089 90.4512 95.8116 91.3258C92.6175 94.8195 89.3808 98.2799 86.2532 101.835C84.9148 103.356 83.8279 103.57 82.3994 101.978C80.7668 100.157 78.9918 98.4653 77.269 96.7303C76.4337 95.889 75.6126 94.8147 76.8988 94.0066C77.511 93.6216 78.9918 93.9734 79.6942 94.5057C81.3743 95.7749 82.8218 97.3482 84.4639 98.8978L84.4687 98.8931Z" fill="white"/>
</g>
<defs>
<clipPath id="clip0_343_1215">
<rect width="125" height="132" fill="white"/>
</clipPath>
</defs>
</svg>
