<svg width="116" height="26" viewBox="0 0 116 26" fill="none" xmlns="http://www.w3.org/2000/svg">
<g clip-path="url(#clip0_1_134)">
<g clip-path="url(#clip1_1_134)">
<g clip-path="url(#clip2_1_134)">
<path d="M39.303 24.2868C36.6452 24.2868 34.5724 23.5518 33.0842 22.081C31.6138 20.6107 30.8784 18.5111 30.8784 15.7827V5.36511H35.1837V15.6234C35.1837 18.9542 36.5657 20.6196 39.3295 20.6196C40.6761 20.6196 41.7037 20.2208 42.4122 19.4236C43.1208 18.6088 43.4753 17.3419 43.4753 15.6234V5.36511H47.7273V15.7827C47.7273 18.5111 46.9833 20.6107 45.495 22.081C44.0246 23.5518 41.9605 24.2868 39.303 24.2868Z" fill="#AFAFAF"/>
<path d="M49.8271 14.826H57.3481V18.1481H49.8271V14.826Z" fill="#AFAFAF"/>
<path d="M62.4664 8.87309H56.5133V5.36511H72.7248V8.87309H66.7716V23.9681H62.4664V8.87309Z" fill="#AFAFAF"/>
<path d="M87.5152 9.67041V23.9682H83.5823V22.2674C83.0329 22.8872 82.3773 23.3659 81.6154 23.7024C80.8536 24.0211 80.0299 24.1807 79.1439 24.1807C77.2661 24.1807 75.7779 23.6401 74.6795 22.5596C73.581 21.4788 73.0317 19.8753 73.0317 17.7493V9.67041H77.1775V17.1381C77.1775 19.4415 78.1432 20.5932 80.0742 20.5932C81.0664 20.5932 81.8637 20.2741 82.466 19.6364C83.0683 18.9808 83.3694 18.0151 83.3694 16.7396V9.67041H87.5152Z" fill="#AFAFAF"/>
<path d="M93.9862 11.5572C94.4823 10.8663 95.1466 10.3436 95.9792 9.98925C96.8297 9.63491 97.804 9.45776 98.9024 9.45776V13.2847C98.4421 13.2493 98.132 13.2315 97.9725 13.2315C96.7854 13.2315 95.8555 13.5681 95.182 14.2414C94.5088 14.8969 94.1723 15.889 94.1723 17.2179V23.9681H90.0264V9.67036H93.9862V11.5572Z" fill="#AFAFAF"/>
<path d="M108.728 9.45776C110.5 9.45776 111.926 9.98925 113.007 11.0523C114.105 12.1153 114.654 13.6921 114.654 15.7828V23.9681H110.508V16.4205C110.508 15.2867 110.261 14.4452 109.764 13.8959C109.268 13.3289 108.551 13.0455 107.612 13.0455C106.567 13.0455 105.734 13.3732 105.114 14.0288C104.494 14.6665 104.183 15.6233 104.183 16.8989V23.9681H100.038V9.67036H103.997V11.3446C104.547 10.7422 105.229 10.2816 106.044 9.96268C106.859 9.62608 107.754 9.45776 108.728 9.45776Z" fill="#AFAFAF"/>
<path fill-rule="evenodd" clip-rule="evenodd" d="M12.3567 0.530258C13.0637 -0.176753 14.2099 -0.176753 14.917 0.530258L21.5376 7.15098L14.8868 13.4996C14.1636 14.1899 13.0176 14.1632 12.3273 13.44C11.6369 12.7167 11.6635 11.5708 12.3868 10.8804L14.4288 8.93126H10.016C6.48323 8.93126 3.61931 11.7952 3.61931 15.328C3.61931 18.8609 6.48323 21.7247 10.016 21.7247H18.9474C19.947 21.7247 20.7578 22.5353 20.7578 23.535C20.7578 24.535 19.947 25.3455 18.9474 25.3455H10.016C4.48352 25.3455 -0.00143433 20.8607 -0.00143433 15.328C-0.00143433 9.79546 4.48352 5.31048 10.016 5.31048H14.5766L12.3567 3.09055C11.6497 2.38353 11.6497 1.23727 12.3567 0.530258Z" fill="#AFAFAF"/>
</g>
</g>
</g>
<defs>
<clipPath id="clip0_1_134">
<rect width="115.14" height="26" fill="white"/>
</clipPath>
<clipPath id="clip1_1_134">
<rect width="115.14" height="26" fill="white"/>
</clipPath>
<clipPath id="clip2_1_134">
<rect width="115.143" height="26" fill="white" transform="translate(-0.00143433)"/>
</clipPath>
</defs>
</svg>
