<svg width="17" height="12" viewBox="0 0 17 12" fill="none" xmlns="http://www.w3.org/2000/svg">
<path fill-rule="evenodd" clip-rule="evenodd" d="M14.8267 0.353015C15.5434 0.545569 16.1104 1.11254 16.303 1.82927C16.656 3.13436 16.6667 5.84082 16.6667 5.84082C16.6667 5.84082 16.6667 8.55798 16.3136 9.85237C16.1211 10.5691 15.5541 11.1361 14.8374 11.3286C13.543 11.6816 8.33333 11.6816 8.33333 11.6816C8.33333 11.6816 3.12366 11.6816 1.82927 11.3286C1.11254 11.1361 0.545572 10.5691 0.353017 9.85237C0 8.54728 0 5.84082 0 5.84082C0 5.84082 0 3.13436 0.342319 1.83997C0.534874 1.12323 1.10184 0.55627 1.81857 0.363717C3.11297 0.0106949 8.32264 0 8.32264 0C8.32264 0 13.5323 0 14.8267 0.353015ZM10.9863 5.84082L6.66453 8.34403V3.33761L10.9863 5.84082Z" fill="white"/>
</svg>
