<svg width="89" height="97" viewBox="0 0 89 97" fill="none" xmlns="http://www.w3.org/2000/svg">
<path d="M52.6735 62.6633V53.3546C57.9009 49.5621 62.5216 42.5057 66.1506 34.4811C66.1996 34.4884 66.2451 34.5102 66.2959 34.5102C78.8158 34.5102 89 19.4365 89 0.908163C89 0.406857 88.5931 0 88.0918 0H0.908163C0.406857 0 0 0.406857 0 0.908163C0 19.4365 10.1841 34.5102 22.7041 34.5102C22.7549 34.5102 22.8003 34.4884 22.8494 34.4811C26.4784 42.5039 31.0991 49.5603 36.3265 53.3528V62.6633C36.3265 63.1646 36.7334 63.5714 37.2347 63.5714H40.4678C35.9814 82.0889 27.7426 94.449 22.7041 94.449C22.2028 94.449 21.7959 94.8558 21.7959 95.3571C21.7959 95.8584 22.2028 96.2653 22.7041 96.2653H66.2959C66.7972 96.2653 67.2041 95.8584 67.2041 95.3571C67.2041 94.8558 66.7972 94.449 66.2959 94.449C61.2592 94.449 53.0186 82.0889 48.5341 63.5714H51.7653C52.2666 63.5714 52.6735 63.1646 52.6735 62.6633ZM66.9571 32.643C71.4761 22.0375 74.2605 10.0915 74.4512 1.81633H87.1528C86.8404 18.5828 77.9676 32.1145 66.9571 32.643ZM1.8472 1.81633H14.5488C14.7413 10.0915 17.5257 22.0357 22.0448 32.643C11.0324 32.1145 2.15961 18.5828 1.8472 1.81633ZM50.8571 52.8842V61.7551H47.3861C47.1101 61.7551 46.8467 61.8804 46.6741 62.0966C46.5016 62.3127 46.438 62.5961 46.4998 62.8667C49.9235 77.6916 56.0845 89.9735 61.8641 94.449H27.1341C32.9137 89.9735 39.0746 77.6916 42.4984 62.8667C42.5602 62.5979 42.4966 62.3127 42.324 62.0966C42.1515 61.8804 41.8899 61.7551 41.6139 61.7551H38.1429V52.8824C38.1429 52.5845 37.9957 52.3048 37.7505 52.1358C25.79 43.8788 16.7284 16.416 16.3578 1.81633H72.6403C72.2716 16.4178 63.21 43.8806 51.2495 52.1377C51.0043 52.3066 50.8571 52.5863 50.8571 52.8842Z" fill="white"/>
</svg>
