<svg width="100" height="100" viewBox="0 0 100 100" fill="none" xmlns="http://www.w3.org/2000/svg">
<path d="M49.8151 26.4324C57.1023 26.4324 63.0313 20.5034 63.0313 13.2162C63.0313 5.929 57.1023 0 49.8151 0C42.5279 0 36.5989 5.929 36.5989 13.2162C36.5989 20.5034 42.5279 26.4324 49.8151 26.4324ZM49.8151 2.03327C55.98 2.03327 60.9981 7.04933 60.9981 13.2162C60.9981 19.3831 55.98 24.3992 49.8151 24.3992C43.6482 24.3992 38.6321 19.3831 38.6321 13.2162C38.6321 7.04933 43.6482 2.03327 49.8151 2.03327Z" fill="white"/>
<path d="M25.4158 63.0312H74.2142C74.7753 63.0312 75.2308 62.5758 75.2308 62.0146V37.6154C75.2308 33.1727 74.0454 28.7788 71.8027 24.9075C71.6217 24.5944 71.2863 24.3992 70.9223 24.3992C70.5584 24.3992 70.2249 24.5923 70.0419 24.9075C65.8656 32.1174 58.1127 36.5988 49.815 36.5988C41.5152 36.5988 33.7644 32.1174 29.586 24.9075C29.4051 24.5944 29.0696 24.3992 28.7056 24.3992C28.3417 24.3992 28.0082 24.5923 27.8252 24.9075C25.5846 28.7768 24.3992 33.1727 24.3992 37.6154V62.0146C24.3992 62.5758 24.8546 63.0312 25.4158 63.0312ZM26.4324 37.6154C26.4324 34.0999 27.2396 30.6169 28.7788 27.443C33.4858 34.3866 41.3891 38.632 49.815 38.632C58.2388 38.632 66.1421 34.3866 70.8511 27.445C72.3903 30.6189 73.1975 34.0999 73.1975 37.6154V60.9979H26.4324V37.6154Z" fill="white"/>
<path d="M98.6134 73.1975H1.01663C0.455451 73.1975 0 73.653 0 74.2141V98.6133C0 99.1745 0.455451 99.63 1.01663 99.63C1.57781 99.63 2.03327 99.1745 2.03327 98.6133V75.2308H48.7984V98.6133C48.7984 99.1745 49.2538 99.63 49.815 99.63C50.3762 99.63 50.8316 99.1745 50.8316 98.6133V75.2308H97.5967V98.6133C97.5967 99.1745 98.0522 99.63 98.6134 99.63C99.1746 99.63 99.63 99.1745 99.63 98.6133V74.2141C99.63 73.653 99.1746 73.1975 98.6134 73.1975Z" fill="white"/>
</svg>
