<svg width="102" height="120" viewBox="0 0 102 120" fill="none" xmlns="http://www.w3.org/2000/svg">
<path d="M100.125 22.5C79.686 22.5 69.75 15.5093 69.75 1.125C69.75 0.504 69.246 0 68.625 0H32.625C32.004 0 31.5 0.504 31.5 1.125C31.5 15.5093 21.564 22.5 1.125 22.5C0.504 22.5 0 23.004 0 23.625V64.125C0 86.85 47.9768 117.767 50.0198 119.072C50.2043 119.192 50.4135 119.25 50.625 119.25C50.8365 119.25 51.0458 119.192 51.2303 119.072C53.2733 117.767 101.25 86.85 101.25 64.125V23.625C101.25 23.004 100.746 22.5 100.125 22.5ZM99 64.125C99 84.3097 56.2545 113.083 50.625 116.782C44.9977 113.083 2.25 84.3097 2.25 64.125V24.7432C22.6395 24.4777 33.2212 16.9155 33.7297 2.25H67.5202C68.031 16.9132 78.6127 24.4755 99 24.7432V64.125Z" fill="white"/>
<path d="M50.625 27C32.6363 27 18 41.6363 18 59.625C18 77.6138 32.6363 92.25 50.625 92.25C68.6138 92.25 83.25 77.6138 83.25 59.625C83.25 41.6363 68.6138 27 50.625 27ZM50.625 90C33.876 90 20.25 76.374 20.25 59.625C20.25 42.876 33.876 29.25 50.625 29.25C67.374 29.25 81 42.876 81 59.625C81 76.374 67.374 90 50.625 90Z" fill="white"/>
<path d="M67.3311 42.9187C66.9509 42.5385 66.3591 42.48 65.9114 42.7792L46.8201 55.5075C46.6964 55.5907 46.5906 55.6942 46.5074 55.8202L33.7791 74.9115C33.4821 75.357 33.5406 75.951 33.9186 76.3312C34.1369 76.5495 34.4249 76.6597 34.7151 76.6597C34.9311 76.6597 35.1494 76.599 35.3384 76.4707L54.4296 63.7425C54.5534 63.6615 54.6614 63.5535 54.7424 63.4297L67.4706 44.3385C67.7676 43.893 67.7114 43.299 67.3311 42.9187ZM52.9964 61.9965L38.7719 71.4802L48.2534 57.2557L62.4779 47.7742L52.9964 61.9965Z" fill="white"/>
<path d="M50.625 42.75C51.246 42.75 51.75 42.246 51.75 41.625V37.125C51.75 36.504 51.246 36 50.625 36C50.004 36 49.5 36.504 49.5 37.125V41.625C49.5 42.246 50.004 42.75 50.625 42.75Z" fill="white"/>
<path d="M50.625 76.5C50.004 76.5 49.5 77.004 49.5 77.625V82.125C49.5 82.746 50.004 83.25 50.625 83.25C51.246 83.25 51.75 82.746 51.75 82.125V77.625C51.75 77.004 51.246 76.5 50.625 76.5Z" fill="white"/>
<path d="M32.625 58.5H28.125C27.504 58.5 27 59.004 27 59.625C27 60.246 27.504 60.75 28.125 60.75H32.625C33.246 60.75 33.75 60.246 33.75 59.625C33.75 59.004 33.246 58.5 32.625 58.5Z" fill="white"/>
<path d="M67.5 59.625C67.5 60.246 68.004 60.75 68.625 60.75H73.125C73.746 60.75 74.25 60.246 74.25 59.625C74.25 59.004 73.746 58.5 73.125 58.5H68.625C68.004 58.5 67.5 59.004 67.5 59.625Z" fill="white"/>
</svg>
