<svg width="33" height="33" viewBox="0 0 33 33" fill="none" xmlns="http://www.w3.org/2000/svg">
<path d="M18.4787 16.1177L31.8348 2.76159C32.0988 2.45338 32.2367 2.05693 32.221 1.65145C32.2054 1.24597 32.0373 0.861337 31.7503 0.574407C31.4634 0.287477 31.0788 0.119385 30.6733 0.103724C30.2678 0.0880617 29.8714 0.225983 29.5632 0.489926L16.207 13.846L2.85093 0.473814C2.54755 0.170436 2.13608 0 1.70704 0C1.278 0 0.866531 0.170436 0.563153 0.473814C0.259775 0.777193 0.089339 1.18866 0.089339 1.6177C0.089339 2.04674 0.259775 2.45821 0.563153 2.76159L13.9354 16.1177L0.563153 29.4738C0.394499 29.6182 0.257522 29.796 0.160818 29.9959C0.0641139 30.1957 0.00977088 30.4135 0.00120059 30.6353C-0.00736971 30.8572 0.0300169 31.0785 0.111015 31.2852C0.192013 31.492 0.314873 31.6797 0.471884 31.8368C0.628894 31.9938 0.816665 32.1166 1.02341 32.1976C1.23016 32.2786 1.45141 32.316 1.6733 32.3074C1.89518 32.2989 2.11289 32.2445 2.31277 32.1478C2.51265 32.0511 2.69039 31.9141 2.83482 31.7455L16.207 18.3894L29.5632 31.7455C29.8714 32.0094 30.2678 32.1473 30.6733 32.1317C31.0788 32.116 31.4634 31.9479 31.7503 31.661C32.0373 31.3741 32.2054 30.9894 32.221 30.584C32.2367 30.1785 32.0988 29.782 31.8348 29.4738L18.4787 16.1177Z" fill="black"/>
</svg>
