<svg width="9" height="16" viewBox="0 0 9 16" fill="none" xmlns="http://www.w3.org/2000/svg">
<path fill-rule="evenodd" clip-rule="evenodd" d="M5.92556 3.7792C5.99196 3.716 6.07676 3.68 6.15996 3.68H8.31996C8.54156 3.68 8.71996 3.5008 8.71996 3.28V0.4C8.71996 0.1792 8.54156 0 8.31996 0H6.15996C5.11516 0 4.08476 0.424 3.33116 1.1656C2.576 1.9256 2.16 2.932 2.16 4V5.76081H0.4C0.1784 5.76081 0 5.93921 0 6.16081V9.04001C0 9.26161 0.1784 9.44001 0.4 9.44001H2.16V14.8C2.16 15.0216 2.3392 15.2 2.56 15.2H5.43996C5.66076 15.2 5.83996 15.0216 5.83996 14.8V9.44001H8.31996C8.54156 9.44001 8.71996 9.26161 8.71996 9.04001V6.16081C8.71996 5.93921 8.54156 5.76081 8.31996 5.76081H5.83996V4C5.83996 3.9136 5.87356 3.832 5.92556 3.7792Z" fill="white"/>
</svg>
