<svg width="44" height="44" viewBox="0 0 44 44" fill="none" xmlns="http://www.w3.org/2000/svg">
<path d="M7.33334 33C6.8139 33 6.37878 32.824 6.02801 32.472C5.67723 32.12 5.50123 31.6849 5.50001 31.1667C5.49878 30.6484 5.67478 30.2133 6.02801 29.8613C6.38123 29.5093 6.81634 29.3333 7.33334 29.3333H36.6667C37.1861 29.3333 37.6218 29.5093 37.9738 29.8613C38.3258 30.2133 38.5012 30.6484 38.5 31.1667C38.4988 31.6849 38.3228 32.1206 37.972 32.4738C37.6212 32.8271 37.1861 33.0024 36.6667 33H7.33334ZM7.33334 23.8333C6.8139 23.8333 6.37878 23.6573 6.02801 23.3053C5.67723 22.9533 5.50123 22.5182 5.50001 22C5.49878 21.4818 5.67478 21.0467 6.02801 20.6947C6.38123 20.3427 6.81634 20.1667 7.33334 20.1667H36.6667C37.1861 20.1667 37.6218 20.3427 37.9738 20.6947C38.3258 21.0467 38.5012 21.4818 38.5 22C38.4988 22.5182 38.3228 22.9539 37.972 23.3072C37.6212 23.6604 37.1861 23.8358 36.6667 23.8333H7.33334ZM7.33334 14.6667C6.8139 14.6667 6.37878 14.4907 6.02801 14.1387C5.67723 13.7867 5.50123 13.3516 5.50001 12.8333C5.49878 12.3151 5.67478 11.88 6.02801 11.528C6.38123 11.176 6.81634 11 7.33334 11H36.6667C37.1861 11 37.6218 11.176 37.9738 11.528C38.3258 11.88 38.5012 12.3151 38.5 12.8333C38.4988 13.3516 38.3228 13.7873 37.972 14.1405C37.6212 14.4937 37.1861 14.6691 36.6667 14.6667H7.33334Z" fill="white"/>
</svg>
