<svg width="82" height="26" viewBox="0 0 82 26" fill="none" xmlns="http://www.w3.org/2000/svg">
<g clip-path="url(#clip0_1_120)">
<g clip-path="url(#clip1_1_120)">
<g clip-path="url(#clip2_1_120)">
<path d="M48.4102 22.4922C48.4102 22.7656 48.6387 22.9834 48.9121 22.9706L52.9647 22.777C53.2201 22.7647 53.4209 22.554 53.4209 22.2982V9.49175C53.4209 9.21965 53.1945 9.00219 52.9228 9.01309L48.8702 9.17519C48.613 9.18547 48.4102 9.39673 48.4102 9.65386V22.4922Z" fill="#AFAFAF"/>
<path d="M49.0418 6.6165C49.5379 7.11278 50.1582 7.36097 50.9028 7.36097C51.6854 7.36097 52.3153 7.11278 52.7925 6.6165C53.289 6.10111 53.5372 5.46164 53.5372 4.6981C53.5372 3.95365 53.289 3.32374 52.7925 2.80834C52.3153 2.29297 51.6854 2.03528 50.9028 2.03528C50.1582 2.03528 49.5379 2.29297 49.0418 2.80834C48.5454 3.32374 48.2971 3.95365 48.2971 4.6981C48.2971 5.46164 48.5454 6.10111 49.0418 6.6165Z" fill="#AFAFAF"/>
<path fill-rule="evenodd" clip-rule="evenodd" d="M36.3531 14.7769V21.7375C36.3531 21.9683 36.1888 22.1661 35.9621 22.2087L31.7948 22.9874C31.5002 23.0427 31.2278 22.8164 31.2278 22.5167V3.17289C31.2278 2.90832 31.4425 2.69385 31.7071 2.69385H39.8751C41.2492 2.69385 42.4521 2.95154 43.4828 3.46691C44.5327 3.98231 45.3535 4.68859 45.9451 5.58572C46.5368 6.4829 46.8327 7.53278 46.8327 8.73534C46.8327 9.93791 46.5272 10.9973 45.9165 11.9135C45.3247 12.8108 44.4944 13.517 43.4254 14.0324C42.9632 14.247 42.4668 14.4153 41.9362 14.5372L47.3719 21.9356C47.6365 22.2958 47.3074 22.7902 46.873 22.685L42.38 21.5955C42.278 21.5707 42.1871 21.5132 42.121 21.4317L36.7197 14.7769H36.3531ZM36.3531 11.1119H39.1592C39.999 11.1119 40.6385 10.9114 41.0775 10.5106C41.5357 10.0906 41.7649 9.52752 41.7649 8.82124C41.7649 8.13404 41.5357 7.58048 41.0775 7.16053C40.6385 6.72151 39.999 6.50199 39.1592 6.50199H36.3531V11.1119Z" fill="#AFAFAF"/>
<path d="M60.2171 23.3952C59.3581 23.3952 58.5086 23.2808 57.6688 23.0518C56.8481 22.8226 56.0747 22.5175 55.3495 22.1354C54.7948 21.8205 54.3048 21.4702 53.8795 21.0849C53.6875 20.911 53.69 20.614 53.8713 20.4286L55.9201 18.3368C56.1092 18.1435 56.4192 18.1472 56.6254 18.322C57.0013 18.6405 57.4254 18.9 57.8979 19.1005C58.5469 19.3677 59.2338 19.5013 59.9593 19.5013C60.3793 19.5013 60.6944 19.444 60.9044 19.3295C61.1335 19.215 61.2479 19.0527 61.2479 18.8427C61.2479 18.5373 61.0857 18.3083 60.7609 18.1556C60.4558 17.9838 60.0454 17.8406 59.5298 17.726C59.0335 17.5925 58.5086 17.4398 57.9552 17.2679C57.4015 17.0771 56.8672 16.8289 56.3516 16.5235C55.8361 16.2181 55.4162 15.7885 55.0918 15.2351C54.7863 14.6815 54.6336 13.9752 54.6336 13.1162C54.6336 12.2191 54.8723 11.4364 55.3495 10.7683C55.8456 10.0812 56.5329 9.54667 57.4111 9.1649C58.2892 8.76405 59.3198 8.5636 60.5032 8.5636C61.706 8.5636 62.8511 8.77357 63.9392 9.19351C64.8648 9.53445 65.7941 10.1949 66.4626 10.8897C66.6494 11.0841 66.6128 11.3935 66.3988 11.558L64.029 13.3809C63.8297 13.5342 63.5493 13.5031 63.3626 13.335C63.0372 13.0421 62.7296 12.8895 62.3072 12.7439C61.7538 12.534 61.2479 12.429 60.7897 12.429C60.3506 12.429 60.0358 12.4959 59.8449 12.6294C59.6542 12.7439 59.5586 12.9062 59.5586 13.1162C59.5586 13.3644 59.7111 13.5648 60.0168 13.7175C60.341 13.8702 60.7514 14.0133 61.2479 14.147C61.7634 14.2615 62.2881 14.4142 62.8227 14.6051C63.3762 14.7959 63.9009 15.0633 64.3974 15.4068C64.9129 15.7313 65.3234 16.1704 65.6285 16.7239C65.9533 17.2775 66.1154 17.9933 66.1154 18.8714C66.1154 20.2648 65.5811 21.3719 64.5122 22.1927C63.4431 22.9943 62.0112 23.3952 60.2171 23.3952Z" fill="#AFAFAF"/>
<path fill-rule="evenodd" clip-rule="evenodd" d="M69.8596 22.393C71.0624 23.0039 72.4462 23.3094 74.0115 23.3094C75.2523 23.3094 76.3594 23.1089 77.3328 22.7082C78.1822 22.3651 78.9197 21.8823 79.5452 21.2599C79.7244 21.082 79.7139 20.7939 79.5353 20.6153L77.608 18.6883C77.4124 18.4927 77.0941 18.5055 76.8893 18.6913C76.5616 18.9885 76.2034 19.2203 75.8152 19.3867C75.3 19.6157 74.6988 19.7302 74.0115 19.7302C73.286 19.7302 72.6752 19.5871 72.1792 19.3008C71.6827 19.0144 71.3011 18.5945 71.0338 18.0409C70.9682 17.9008 70.9109 17.7538 70.8614 17.5998L80.3106 17.5559C80.5298 17.5549 80.7221 17.4058 80.7651 17.1911C80.8121 16.9567 80.8419 16.7437 80.8548 16.552C80.8927 16.2466 80.9119 15.9508 80.9119 15.6644C80.9119 14.3091 80.5971 13.1066 79.9671 12.0567C79.3564 10.9877 78.4973 10.1574 77.3902 9.56567C76.3021 8.95484 75.0518 8.64941 73.6393 8.64941C72.1884 8.64941 70.8811 8.97392 69.7165 9.62291C68.5715 10.2528 67.6647 11.1214 66.9965 12.2285C66.3284 13.3165 65.9945 14.5669 65.9945 15.9794C65.9945 17.411 66.3379 18.6804 67.0252 19.7875C67.7124 20.8946 68.6571 21.7631 69.8596 22.393ZM70.8507 14.3838C70.8954 14.2413 70.9467 14.105 71.0051 13.9751C71.2532 13.4216 71.6063 12.992 72.0644 12.6866C72.5226 12.3812 73.0665 12.2285 73.6964 12.2285C74.3072 12.2285 74.8131 12.3621 75.214 12.6294C75.6149 12.8966 75.9204 13.2879 76.1304 13.8033C76.1993 13.9663 76.258 14.1447 76.3062 14.3387L70.8507 14.3838Z" fill="#AFAFAF"/>
<path d="M75.0026 6.66085V2.96531H75.9421V6.66085H75.0026ZM73.8633 3.74749V2.93909H77.081V3.74749H73.8633ZM77.246 6.66085V2.93909H77.9233L79.3512 5.09654H79.0309L80.4536 2.93909H81.1305V6.66085H80.2016V4.49286L80.3484 4.53486L79.4928 5.82096H78.8838L78.0336 4.53486L78.1805 4.49286V6.66085H77.246Z" fill="#AFAFAF"/>
<path d="M6.75812 0.986032C6.75812 0.701907 6.9697 0.462234 7.25163 0.427L10.632 0.0044325C10.9683 -0.0375956 11.2653 0.22461 11.2653 0.563498V11.6818C11.2653 12.0207 10.9683 12.2829 10.632 12.2408L7.25163 11.8183C6.9697 11.783 6.75812 11.5434 6.75812 11.2593V0.986032Z" fill="#AFAFAF"/>
<path d="M-0.00271606 2.39449C-0.00271606 2.11035 0.208858 1.87068 0.490798 1.83541L3.87118 1.41288C4.20746 1.37085 4.50447 1.63306 4.50447 1.97195V10.8367C4.50447 11.1755 4.20746 11.4377 3.87118 11.3957L0.490798 10.9732C0.208858 10.9379 -0.00271606 10.6983 -0.00271606 10.4141V2.39449Z" fill="#AFAFAF"/>
<path d="M17.6018 0.945456C17.8523 1.00814 18.0285 1.23351 18.0285 1.49202V6.18876C18.0285 6.47288 17.8169 6.71256 17.5349 6.74779L14.1545 7.17033C13.8183 7.21239 13.5213 6.95018 13.5213 6.61129V0.646924C13.5213 0.280381 13.8657 0.01145 14.2213 0.100354L17.6018 0.945456Z" fill="#AFAFAF"/>
<path d="M24.224 2.90044C24.224 2.64192 24.0478 2.41659 23.7971 2.35387L20.4169 1.5088C20.061 1.41989 19.7165 1.68883 19.7165 2.05537V6.32953C19.7165 6.66842 20.0136 6.93063 20.3499 6.88857L23.7302 6.46603C24.0122 6.43079 24.224 6.19112 24.224 5.907V2.90044Z" fill="#AFAFAF"/>
<path d="M24.2234 8.65796L13.2371 8.93966C13.396 11.0061 15.1192 12.6018 17.1917 12.6018H19.716V14.9994L-0.00271606 13.1651V24.9108L24.2234 23.2204V8.65796Z" fill="#AFAFAF"/>
</g>
</g>
</g>
<defs>
<clipPath id="clip0_1_120">
<rect width="81.54" height="26" fill="white"/>
</clipPath>
<clipPath id="clip1_1_120">
<rect width="81.54" height="26" fill="white"/>
</clipPath>
<clipPath id="clip2_1_120">
<rect width="81.5455" height="26" fill="white" transform="translate(-0.00271606)"/>
</clipPath>
</defs>
</svg>
