<svg width="13" height="10" viewBox="0 0 13 10" fill="none" xmlns="http://www.w3.org/2000/svg">
<path d="M12.414 4.99985L7.707 0.292849C7.61416 0.200005 7.50393 0.126356 7.38263 0.0761087C7.26132 0.0258616 7.1313 -2.29936e-07 7 -2.36653e-07C6.8687 -2.43371e-07 6.73868 0.0258616 6.61738 0.0761087C6.49607 0.126356 6.38585 0.200005 6.293 0.292849C6.20016 0.385694 6.12651 0.495916 6.07626 0.617223C6.02601 0.738531 6.00015 0.868547 6.00015 0.999849C6.00015 1.13115 6.02601 1.26117 6.07626 1.38247C6.12651 1.50378 6.20016 1.614 6.293 1.70685L8.586 3.99985L1 3.99985C0.734785 3.99985 0.48043 4.10521 0.292894 4.29274C0.105358 4.48028 1.70039e-06 4.73463 1.6888e-06 4.99985C1.67721e-06 5.26507 0.105358 5.51942 0.292894 5.70696C0.48043 5.89449 0.734785 5.99985 1 5.99985L8.586 5.99985L6.293 8.29285C6.19982 8.3855 6.12587 8.49566 6.07541 8.617C6.02494 8.73833 5.99897 8.86844 5.99897 8.99985C5.99897 9.13126 6.02494 9.26137 6.07541 9.3827C6.12587 9.50403 6.19982 9.6142 6.293 9.70685C6.48053 9.89432 6.73484 9.99964 7 9.99964C7.26517 9.99964 7.51947 9.89432 7.707 9.70685L12.414 4.99985Z" fill="#00529C"/>
</svg>
