<svg width="13" height="10" viewBox="0 0 13 10" fill="none" xmlns="http://www.w3.org/2000/svg">
<path d="M6.55651e-07 4.99991L4.707 9.70691C4.79984 9.79975 4.91007 9.8734 5.03137 9.92365C5.15268 9.97389 5.2827 9.99976 5.414 9.99976C5.5453 9.99976 5.67532 9.97389 5.79663 9.92365C5.91793 9.8734 6.02816 9.79975 6.121 9.70691C6.21384 9.61406 6.28749 9.50384 6.33774 9.38253C6.38799 9.26123 6.41385 9.13121 6.41385 8.99991C6.41385 8.86861 6.38799 8.73859 6.33774 8.61728C6.28749 8.49597 6.21384 8.38575 6.121 8.29291L3.828 5.99991L11.414 5.99991C11.6792 5.99991 11.9336 5.89455 12.1211 5.70701C12.3086 5.51948 12.414 5.26512 12.414 4.99991C12.414 4.73469 12.3086 4.48034 12.1211 4.2928C11.9336 4.10527 11.6792 3.99991 11.414 3.99991L3.828 3.99991L6.121 1.70691C6.21419 1.61425 6.28814 1.50409 6.3386 1.38276C6.38906 1.26143 6.41504 1.13132 6.41504 0.999907C6.41504 0.8685 6.38906 0.738388 6.3386 0.617055C6.28814 0.495722 6.21419 0.38556 6.121 0.292907C5.93347 0.105435 5.67917 0.000120908 5.414 0.000120873C5.14884 0.000120838 4.89453 0.105435 4.707 0.292906L6.55651e-07 4.99991Z" fill="#D9D9D9"/>
</svg>
